<?xml version="1.0" encoding="utf-8"?>
<!-- Generator: Adobe Illustrator 21.0.0, SVG Export Plug-In . SVG Version: 6.00 Build 0)  -->
<svg version="1.1" id="Слой_1" xmlns="http://www.w3.org/2000/svg" xmlns:xlink="http://www.w3.org/1999/xlink" x="0px" y="0px"
	 viewBox="0 0 370.4 90.8" style="enable-background:new 0 0 370.4 90.8;" xml:space="preserve">
<style type="text/css">
	.st0{fill:#A4C815;}
	.st1{fill:#92B700;}
	.st2{fill:#FFFFFF;}
</style>
<g>
	<g>
		<polygon class="st0" points="165.1,90.8 0.1,90.8 0.1,0.1 165.1,0.1 174.8,46.6 		"/>
		<polygon class="st1" points="174.8,46.6 165.1,90.8 0.1,90.8 0.1,46.6 		"/>
		<g>
			<path class="st2" d="M60.6,49.5c0,18.1-8.4,27.2-25.3,27.2c-16.4,0-24.6-8.9-24.6-26.6V15.3h13.6v35c0,9.8,3.8,14.7,11.5,14.7
				C43.3,65,47,60.3,47,50.9V15.3h13.6V49.5z"/>
			<path class="st2" d="M66.6,73.3V59.8c2.4,2.1,5.1,3.6,8,4.6c2.9,1,5.8,1.5,8.7,1.5c1.7,0,3.2-0.2,4.5-0.5s2.3-0.7,3.2-1.3
				c0.9-0.5,1.5-1.2,1.9-1.9s0.6-1.6,0.6-2.4c0-1.2-0.3-2.2-1-3.2c-0.7-0.9-1.6-1.8-2.8-2.6c-1.2-0.8-2.5-1.5-4.1-2.3
				c-1.6-0.7-3.3-1.5-5.2-2.2c-4.7-2-8.2-4.4-10.6-7.2c-2.3-2.8-3.5-6.3-3.5-10.3c0-3.1,0.6-5.8,1.9-8.1s3-4.1,5.2-5.6
				s4.7-2.5,7.6-3.2s5.9-1,9.1-1c3.1,0,5.9,0.2,8.4,0.6c2.4,0.4,4.7,1,6.7,1.7V29c-1-0.7-2.1-1.3-3.3-1.9c-1.2-0.5-2.4-1-3.7-1.3
				s-2.5-0.6-3.8-0.8c-1.2-0.2-2.4-0.3-3.6-0.3c-1.5,0-2.9,0.1-4.2,0.4c-1.3,0.3-2.3,0.7-3.2,1.2c-0.9,0.5-1.5,1.2-2,1.9
				s-0.7,1.6-0.7,2.5c0,1,0.3,1.9,0.8,2.7s1.3,1.6,2.3,2.3s2.2,1.4,3.6,2.1c1.4,0.7,3,1.4,4.8,2.1c2.4,1,4.6,2.1,6.5,3.2
				c1.9,1.1,3.6,2.4,4.9,3.9c1.4,1.4,2.4,3.1,3.2,4.9c0.7,1.8,1.1,4,1.1,6.4c0,3.4-0.6,6.2-1.9,8.5s-3,4.1-5.2,5.6
				c-2.2,1.4-4.7,2.4-7.6,3.1s-6,0.9-9.2,0.9c-3.3,0-6.5-0.3-9.5-0.8C71.4,75.3,68.8,74.4,66.6,73.3z"/>
			<path class="st2" d="M149.7,75.6h-36.2V15.3h34.8v11.1H127v13.4h19.7v11H127v13.8h22.6L149.7,75.6L149.7,75.6z"/>
		</g>
	</g>
	<g>
		<g>
			<g>
				<g>
					<path class="st2" d="M223.2,26.3H206v49.3h-13.6V26.3h-17.1V15.2h48L223.2,26.3L223.2,26.3z"/>
				</g>
			</g>
			<g>
				<g>
					<path class="st2" d="M263.3,75.6h-36.2V15.2h34.8v11.1h-21.2v13.4h19.7v11h-19.7v13.8h22.6V75.6z"/>
				</g>
			</g>
			<g>
				<g>
					<path class="st2" d="M311.9,73.5c-4.4,2.1-10.2,3.2-17.3,3.2c-9.3,0-16.5-2.7-21.9-8.2c-5.3-5.4-8-12.7-8-21.8
						c0-9.7,3-17.5,8.9-23.5c6-6,13.7-9,23.2-9c5.9,0,10.9,0.7,14.9,2.2v13.1c-4-2.4-8.6-3.6-13.8-3.6c-5.7,0-10.2,1.8-13.7,5.3
						c-3.5,3.6-5.2,8.4-5.2,14.5c0,5.8,1.6,10.5,4.9,14s7.7,5.2,13.3,5.2c5.3,0,10.2-1.3,14.6-3.9v12.5H311.9z"/>
				</g>
			</g>
			<g>
				<g>
					<path class="st2" d="M370.4,75.6h-13.6V51h-25v24.6h-13.6V15.2h13.6v24.1h25V15.2h13.6V75.6z"/>
				</g>
			</g>
		</g>
	</g>
</g>
</svg>
